<?xml version="1.0" encoding="utf-8"?>
<!-- Generated by IcoMoon.io -->
<!DOCTYPE svg PUBLIC "-//W3C//DTD SVG 1.1//EN" "http://www.w3.org/Graphics/SVG/1.1/DTD/svg11.dtd">
<svg version="1.1" xmlns="http://www.w3.org/2000/svg" xmlns:xlink="http://www.w3.org/1999/xlink" width="24" height="24" viewBox="0 0 24 24">
<g id="icomoon-ignore">
</g>
<path d="M12 0c-6.627 0-12 5.373-12 12s5.373 12 12 12 12-5.373 12-12-5.373-12-12-12zM12 21.75c-5.385 0-9.75-4.365-9.75-9.75s4.365-9.75 9.75-9.75 9.75 4.365 9.75 9.75-4.365 9.75-9.75 9.75zM19.061 10.939l-6-6c-0.586-0.586-1.535-0.586-2.121 0s-0.586 1.536 0 2.121l3.439 3.439h-8.379c-0.828 0-1.5 0.672-1.5 1.5s0.672 1.5 1.5 1.5h8.379l-3.439 3.439c-0.586 0.586-0.586 1.536 0 2.121 0.293 0.293 0.677 0.439 1.061 0.439s0.768-0.146 1.061-0.439l6-6c0.586-0.586 0.586-1.536 0-2.121z" fill="#ffffff"></path>
</svg>
