<?xml version="1.0" encoding="utf-8"?>
<!-- Generated by IcoMoon.io -->
<!DOCTYPE svg PUBLIC "-//W3C//DTD SVG 1.1//EN" "http://www.w3.org/Graphics/SVG/1.1/DTD/svg11.dtd">
<svg version="1.1" xmlns="http://www.w3.org/2000/svg" xmlns:xlink="http://www.w3.org/1999/xlink" width="24" height="24" viewBox="0 0 24 24">
<g>
</g>
	<path d="M9 13.75c0 0 4.78-2.868 7.471-1.735 0.558-0.85 1.107-1.766 1.645-2.701-2.633-0.645-6.116-0.065-6.116-0.065s4.458-2.675 7.187-1.838c0.547-0.987 1.079-1.96 1.593-2.867-2.174-0.147-4.28 0.204-4.28 0.204s2.793-1.676 5.31-1.959c0.792-1.286 1.527-2.294 2.19-2.791-13.148 0-21 15-24 24h1.5l4.5-7.5c0 0 1.5 1.5 6 0 1.066-0.355 2.132-1.342 3.177-2.67-2.639-0.669-6.177-0.080-6.177-0.080z" fill="#ffffff" />
</svg>
