<?xml version="1.0" encoding="utf-8"?>
<!-- Generated by IcoMoon.io -->
<!DOCTYPE svg PUBLIC "-//W3C//DTD SVG 1.1//EN" "http://www.w3.org/Graphics/SVG/1.1/DTD/svg11.dtd">
<svg version="1.1" xmlns="http://www.w3.org/2000/svg" xmlns:xlink="http://www.w3.org/1999/xlink" width="26" height="24" viewBox="0 0 26 24">
<g id="icomoon-ignore">
</g>
<path d="M23.25 1.5h-5.25c-1.237 0-2.966 0.716-3.841 1.591l-8.818 8.818c-0.875 0.875-0.875 2.307 0 3.182l6.568 6.568c0.875 0.875 2.307 0.875 3.182 0l8.818-8.818c0.875-0.875 1.591-2.603 1.591-3.841v-5.25c0-1.237-1.013-2.25-2.25-2.25zM20.25 9c-1.243 0-2.25-1.007-2.25-2.25s1.007-2.25 2.25-2.25 2.25 1.007 2.25 2.25-1.007 2.25-2.25 2.25zM2.030 14.030l8.024 8.024c-0.85 0.449-1.933 0.317-2.646-0.396l-6.568-6.568c-0.875-0.875-0.875-2.307 0-3.182l8.818-8.818c0.875-0.875 2.603-1.591 3.841-1.591l-11.47 11.47c-0.292 0.292-0.292 0.769 0 1.061z" fill="#ffffff"></path>
</svg>
