<?xml version="1.0" encoding="utf-8"?>
<!-- Generated by IcoMoon.io -->
<!DOCTYPE svg PUBLIC "-//W3C//DTD SVG 1.1//EN" "http://www.w3.org/Graphics/SVG/1.1/DTD/svg11.dtd">
<svg version="1.1" xmlns="http://www.w3.org/2000/svg" xmlns:xlink="http://www.w3.org/1999/xlink" width="24" height="24" viewBox="0 0 24 24">
<g id="icomoon-ignore">
</g>
<path d="M18.75 3h-13.5c-1.243 0-2.25 1.007-2.25 2.25v0.75h18v-0.75c0-1.243-1.007-2.25-2.25-2.25zM14.82 1.5l0.331 2.367h-6.302l0.331-2.367h5.64zM15 0h-6c-0.619 0-1.195 0.501-1.281 1.114l-0.439 3.139c-0.086 0.613 0.351 1.114 0.969 1.114h7.5c0.619 0 1.055-0.501 0.969-1.114l-0.439-3.139c-0.086-0.613-0.662-1.114-1.281-1.114v0zM19.125 7.5h-14.25c-0.825 0-1.439 0.672-1.364 1.494l1.228 13.512c0.075 0.822 0.811 1.494 1.636 1.494h11.25c0.825 0 1.561-0.672 1.636-1.494l1.228-13.512c0.075-0.822-0.539-1.494-1.364-1.494zM9 21h-2.25l-0.75-10.5h3v10.5zM13.5 21h-3v-10.5h3v10.5zM17.25 21h-2.25v-10.5h3l-0.75 10.5z" fill="#ffffff"></path>
</svg>
