<?xml version="1.0" encoding="utf-8"?>
<!-- Generated by IcoMoon.io -->
<!DOCTYPE svg PUBLIC "-//W3C//DTD SVG 1.1//EN" "http://www.w3.org/Graphics/SVG/1.1/DTD/svg11.dtd">
<svg version="1.1" xmlns="http://www.w3.org/2000/svg" xmlns:xlink="http://www.w3.org/1999/xlink" width="24" height="24" viewBox="0 0 24 24">
<path d="M23.256 20.423l-5.685-4.835c-0.588-0.529-1.216-0.772-1.724-0.748 1.342-1.572 2.153-3.611 2.153-5.84 0-4.971-4.029-9-9-9s-9 4.029-9 9 4.029 9 9 9c2.229 0 4.268-0.811 5.84-2.153-0.023 0.508 0.219 1.136 0.748 1.724l4.835 5.685c0.828 0.92 2.18 0.997 3.005 0.172s0.747-2.177-0.172-3.005zM9 15c-3.314 0-6-2.686-6-6s2.686-6 6-6 6 2.686 6 6-2.686 6-6 6z" fill="#ffffff"></path>
</svg>
